<svg width="99" height="24" viewBox="0 0 99 24" fill="none" xmlns="http://www.w3.org/2000/svg">
<path d="M35.832 2.42969H37.7546V11.0335C37.7546 11.275 37.7849 11.3052 38.0271 11.3052H47.1253C47.3675 11.3052 47.3978 11.275 47.3978 11.0335V2.42969H49.3204V22.2184H47.3978V13.2372C47.3978 12.9957 47.3675 12.9655 47.1253 12.9655H38.0271C37.7849 12.9655 37.7546 12.9957 37.7546 13.2372V22.2184H35.832V2.42969Z" fill="white"/>
<path d="M54.5742 2.42969H65.5647V4.09006H56.7693C56.5271 4.09006 56.4968 4.12025 56.4968 4.36176V11.0335C56.4968 11.275 56.5271 11.3052 56.7693 11.3052H65.5647V12.9504H56.7693C56.5271 12.9504 56.4968 12.9806 56.4968 13.2221V20.2864C56.4968 20.5279 56.5271 20.5581 56.7693 20.5581H65.5647V22.2033H54.5742V2.42969Z" fill="white"/>
<path d="M74.2546 4.42214C74.2546 4.18063 74.2243 4.15044 73.9821 4.15044H68.1992V2.42969H82.1115V4.15044H76.4648C76.2226 4.15044 76.1923 4.18063 76.1923 4.42214V22.2184H74.2697V4.42214H74.2546Z" fill="white"/>
<path d="M91.405 22.3845C87.7112 22.3845 85.2891 19.909 85.2891 15.8486V2.42969H87.2116V15.592C87.2116 18.9731 88.8617 20.7241 91.844 20.7241C94.8263 20.7241 96.4764 18.9581 96.4764 15.592V2.42969H98.399V15.8486C98.399 19.909 95.9768 22.3845 92.0105 22.3845H91.405Z" fill="white"/>
<path d="M24.6454 0H17.3638V8.30189H11.369C10.8543 7.59245 10.0671 7.15472 9.20418 7.15472H7.29674V0H0V23.9849H7.29674C7.31188 23.9849 7.29674 15.1698 7.29674 15.1698H13.882C14.3361 16.2717 15.3201 16.9962 16.4252 16.9962H17.3638V23.9849H24.6454V0ZM24.5697 16.8755H16.4252C15.3655 16.8755 14.4118 16.1811 13.9728 15.1094L12.6255 12.0604H0.105969V7.26038H9.21932C10.279 7.26038 11.2327 7.95472 11.6718 9.02642L12.8071 12.0755H24.5849V16.8755H24.5697Z" fill="white"/>
</svg>
