<svg width="46" height="24" viewBox="0 0 46 24" fill="none" xmlns="http://www.w3.org/2000/svg">
<g clip-path="url(#clip0_1261_2120)">
<path d="M5.35138 0.0234375H0.233094C0.160451 0.0234375 0.101562 0.0822804 0.101562 0.154866V23.9834C0.101562 24.056 0.160451 24.1149 0.233094 24.1149H5.35138C5.42402 24.1149 5.48291 24.056 5.48291 23.9834V0.154866C5.48291 0.0822804 5.42402 0.0234375 5.35138 0.0234375Z" fill="white"/>
<path d="M13.3387 0.0175781H8.30047C8.20572 0.0175781 8.12891 0.0943294 8.12891 0.189007V18.6176C8.12891 18.7123 8.20572 18.789 8.30047 18.789H13.3387C13.4334 18.789 13.5103 18.7123 13.5103 18.6176V0.189007C13.5103 0.0943294 13.4334 0.0175781 13.3387 0.0175781Z" fill="white"/>
<path d="M21.386 0.0175781H16.2964C16.219 0.0175781 16.1562 0.0802582 16.1562 0.157578V23.9747C16.1562 24.052 16.219 24.1147 16.2964 24.1147H21.386C21.4634 24.1147 21.5262 24.052 21.5262 23.9747V0.157578C21.5262 0.0802582 21.4634 0.0175781 21.386 0.0175781Z" fill="white"/>
<path d="M29.3975 0.0189062L24.3192 0.0100499C24.2292 0.00989288 24.1561 0.082679 24.156 0.172622L24.1471 5.2469C24.1469 5.33684 24.2198 5.40988 24.3098 5.41004L29.388 5.4189C29.4781 5.41905 29.5512 5.34627 29.5513 5.25632L29.5602 0.182047C29.5603 0.0921038 29.4875 0.0190631 29.3975 0.0189062Z" fill="white"/>
<path d="M45.4597 0.0605469H32.318C32.2438 0.0605469 32.1836 0.120669 32.1836 0.194833V5.2634C32.1836 5.33757 32.2438 5.39769 32.318 5.39769H45.4597C45.5339 5.39769 45.5941 5.33757 45.5941 5.2634V0.194833C45.5941 0.120669 45.5339 0.0605469 45.4597 0.0605469Z" fill="white"/>
<path d="M29.3975 8.05469H24.3135C24.2267 8.05469 24.1562 8.12504 24.1562 8.21183V23.9661C24.1562 24.0529 24.2267 24.1233 24.3135 24.1233H29.3975C29.4843 24.1233 29.5547 24.0529 29.5547 23.9661V8.21183C29.5547 8.12504 29.4843 8.05469 29.3975 8.05469Z" fill="white"/>
<path d="M37.468 8.05859H32.3097C32.2465 8.05859 32.1953 8.10976 32.1953 8.17288V24.0129C32.1953 24.076 32.2465 24.1272 32.3097 24.1272H37.468C37.5312 24.1272 37.5824 24.076 37.5824 24.0129V8.17288C37.5824 8.10976 37.5312 8.05859 37.468 8.05859Z" fill="white"/>
</g>
<defs>
<clipPath id="clip0_1261_2120">
<rect width="45.75" height="24" fill="white"/>
</clipPath>
</defs>
</svg>
