<svg width="25" height="24" viewBox="0 0 25 24" fill="none" xmlns="http://www.w3.org/2000/svg">
<g clip-path="url(#clip0_1261_2128)">
<path d="M24.7564 21.3698C24.7564 21.3756 24.754 21.3812 24.7498 21.3853C24.7457 21.3894 24.74 21.3917 24.7341 21.3917H0.01836C0.0124546 21.3917 0.00679109 21.3894 0.00261532 21.3853C-0.00156044 21.3812 -0.00390625 21.3756 -0.00390625 21.3698V0.0258012C-0.00390625 0.0199943 -0.00156044 0.0144252 0.00261532 0.0103191C0.00679109 0.00621306 0.0124546 0.00390625 0.01836 0.00390625H24.7341C24.74 0.00390625 24.7457 0.00621306 24.7498 0.0103191C24.754 0.0144252 24.7564 0.0199943 24.7564 0.0258012V21.3698ZM23.1926 1.58285C23.1926 1.57437 23.1891 1.56623 23.183 1.56023C23.1769 1.55423 23.1687 1.55085 23.16 1.55085H1.59756C1.58893 1.55085 1.58066 1.55423 1.57455 1.56023C1.56845 1.56623 1.56502 1.57437 1.56502 1.58285V19.8111C1.56502 19.8195 1.56845 19.8277 1.57455 19.8337C1.58066 19.8397 1.58893 19.8431 1.59756 19.8431H23.16C23.1687 19.8431 23.1769 19.8397 23.183 19.8337C23.1891 19.8277 23.1926 19.8195 23.1926 19.8111V1.58285Z" fill="white"/>
<path d="M10.0745 11.9801C10.0882 11.9801 10.0959 11.9742 10.1011 11.9633C10.9038 10.2156 11.7268 8.42279 12.5701 6.58476C12.573 6.57869 12.5776 6.57355 12.5834 6.56996C12.5891 6.56636 12.5958 6.56445 12.6026 6.56445C12.6095 6.56445 12.6161 6.56636 12.6219 6.56996C12.6277 6.57355 12.6323 6.57869 12.6352 6.58476L16.3117 14.5907C16.3135 14.5949 16.3143 14.5994 16.3139 14.604C16.3135 14.6086 16.3119 14.6129 16.3094 14.6168C16.3069 14.6206 16.3034 14.6238 16.2993 14.626C16.2952 14.6282 16.2907 14.6293 16.286 14.6294H13.9823C13.9687 14.6294 13.9554 14.6255 13.944 14.6184C13.9327 14.6112 13.9236 14.601 13.9181 14.589L12.63 11.7822C12.6275 11.7771 12.6236 11.7727 12.6187 11.7696C12.6137 11.7666 12.608 11.765 12.6022 11.765C12.5964 11.765 12.5907 11.7666 12.5857 11.7696C12.5808 11.7727 12.5769 11.7771 12.5744 11.7822L11.2855 14.5915C11.2806 14.6025 11.2726 14.6118 11.2625 14.6185C11.2523 14.6252 11.2404 14.629 11.2281 14.6294C11.2264 14.6294 10.8419 14.6294 10.0745 14.6294C9.30777 14.6294 8.92325 14.6294 8.92097 14.6294C8.90881 14.6289 8.89707 14.625 8.88708 14.6183C8.87709 14.6116 8.86925 14.6023 8.86444 14.5915L7.57556 11.7822C7.57305 11.7771 7.56911 11.7727 7.56418 11.7696C7.55926 11.7666 7.55355 11.765 7.54773 11.765C7.5419 11.765 7.53619 11.7666 7.53127 11.7696C7.52634 11.7727 7.5224 11.7771 7.51989 11.7822L6.23186 14.589C6.22629 14.601 6.21727 14.6112 6.20589 14.6184C6.1945 14.6255 6.18123 14.6294 6.16763 14.6294H3.86392C3.85926 14.6293 3.85469 14.6282 3.85061 14.626C3.84653 14.6238 3.84307 14.6206 3.84053 14.6168C3.83798 14.6129 3.83644 14.6086 3.83604 14.604C3.83564 14.5994 3.83639 14.5949 3.83822 14.5907L7.51475 6.58476C7.51766 6.57869 7.52226 6.57355 7.52803 6.56996C7.53379 6.56636 7.54047 6.56445 7.5473 6.56445C7.55412 6.56445 7.56081 6.56636 7.56657 6.56996C7.57233 6.57355 7.57693 6.57869 7.57984 6.58476C8.42311 8.42279 9.24611 10.2156 10.0488 11.9633C10.054 11.9742 10.0608 11.9801 10.0745 11.9801Z" fill="white"/>
<path d="M18.7836 11.7413H16.133C16.1278 11.7412 16.1228 11.7397 16.1186 11.7368C16.1143 11.734 16.111 11.73 16.109 11.7253L15.2286 9.69164C15.2269 9.68764 15.2263 9.68329 15.2267 9.67898C15.2271 9.67466 15.2286 9.67053 15.2311 9.66693C15.2336 9.66334 15.2369 9.66041 15.2408 9.6584C15.2447 9.65639 15.2491 9.65537 15.2535 9.65543H18.7827C18.7897 9.65543 18.7965 9.65268 18.8015 9.64778C18.8065 9.64288 18.8092 9.63624 18.8092 9.62932V6.79564C18.8092 6.78871 18.812 6.78207 18.817 6.77718C18.822 6.77228 18.8288 6.76953 18.8358 6.76953H20.8997C20.9068 6.76953 20.9135 6.77228 20.9185 6.77718C20.9235 6.78207 20.9263 6.78871 20.9263 6.79564V14.6011C20.9263 14.608 20.9235 14.6147 20.9185 14.6196C20.9135 14.6245 20.9068 14.6272 20.8997 14.6272H18.8367C18.8296 14.6272 18.8229 14.6245 18.8179 14.6196C18.8129 14.6147 18.8101 14.608 18.8101 14.6011V11.7674C18.8101 11.7605 18.8073 11.7539 18.8023 11.749C18.7973 11.7441 18.7906 11.7413 18.7836 11.7413Z" fill="white"/>
<path d="M6.01295 23.6909C6.02094 23.6909 6.02579 23.6907 6.02751 23.6901C6.03379 23.6878 6.03778 23.6853 6.0395 23.6825C6.10972 23.5506 6.2456 23.2994 6.44714 22.9288C6.45388 22.9161 6.46399 22.9055 6.47637 22.898C6.48875 22.8906 6.50293 22.8867 6.51737 22.8867H6.68265C6.6867 22.8867 6.69068 22.8877 6.69421 22.8896C6.69774 22.8915 6.70069 22.8944 6.70277 22.8978C6.70485 22.9012 6.70599 22.9051 6.70606 22.909C6.70614 22.913 6.70515 22.9169 6.70321 22.9204L6.14227 23.9495C6.13555 23.9618 6.12614 23.9725 6.11474 23.9808C6.10333 23.9891 6.09021 23.9948 6.07632 23.9975C6.07518 23.998 6.05434 23.9983 6.01381 23.9983C5.97384 23.9983 5.953 23.9983 5.95129 23.9983C5.9374 23.9957 5.92428 23.99 5.91287 23.9817C5.90147 23.9734 5.89206 23.9626 5.88535 23.9503L5.31926 22.9238C5.31732 22.9203 5.31633 22.9164 5.31641 22.9124C5.31649 22.9084 5.31762 22.9045 5.3197 22.9011C5.32178 22.8977 5.32473 22.8949 5.32826 22.893C5.33179 22.891 5.33578 22.89 5.33982 22.8901L5.5051 22.8892C5.51954 22.8892 5.53372 22.8931 5.5461 22.9006C5.55848 22.908 5.56859 22.9186 5.57533 22.9314C5.77915 23.3008 5.91646 23.5511 5.98726 23.6825C5.98897 23.6853 5.99268 23.6878 5.99839 23.6901C6.00067 23.6907 6.00553 23.6909 6.01295 23.6909Z" fill="white"/>
<path d="M8.40913 22.8906H7.31636C7.29697 22.8906 7.28125 22.9061 7.28125 22.9252V23.0565C7.28125 23.0756 7.29697 23.091 7.31636 23.091H8.40913C8.42852 23.091 8.44424 23.0756 8.44424 23.0565V22.9252C8.44424 22.9061 8.42852 22.8906 8.40913 22.8906Z" fill="white"/>
<path d="M9.61586 23.5113C9.49882 23.4035 9.37892 23.287 9.25617 23.1618C9.25413 23.1598 9.25154 23.1585 9.24872 23.1579C9.2459 23.1574 9.24298 23.1577 9.24033 23.1587C9.23767 23.1598 9.2354 23.1616 9.2338 23.164C9.2322 23.1663 9.23134 23.1691 9.23133 23.1719V23.9719C9.23133 23.9773 9.22917 23.9824 9.22531 23.9862C9.22146 23.99 9.21623 23.9921 9.21078 23.9921H9.02665C9.02166 23.9921 9.01686 23.9902 9.01333 23.9867C9.0098 23.9832 9.00781 23.9785 9.00781 23.9736V22.9277C9.00781 22.9163 9.01232 22.9054 9.02035 22.8973C9.02838 22.8893 9.03928 22.8848 9.05063 22.8848H9.21763C9.23455 22.8847 9.2513 22.8879 9.2669 22.8943C9.28249 22.9006 9.2966 22.91 9.30841 22.9218C9.4637 23.0751 9.61871 23.223 9.77344 23.3656C9.89048 23.474 10.0101 23.5907 10.1323 23.7159C10.1343 23.7179 10.1369 23.7193 10.1397 23.7198C10.1425 23.7204 10.1455 23.7201 10.1481 23.719C10.1508 23.7179 10.153 23.7161 10.1546 23.7138C10.1562 23.7114 10.1571 23.7086 10.1571 23.7058V22.9058C10.1571 22.9005 10.1593 22.8953 10.1631 22.8915C10.167 22.8877 10.1722 22.8856 10.1777 22.8856H10.3618C10.3668 22.8856 10.3716 22.8876 10.3751 22.891C10.3786 22.8945 10.3806 22.8992 10.3806 22.9041V23.95C10.3806 23.9614 10.3761 23.9723 10.3681 23.9804C10.3601 23.9885 10.3492 23.993 10.3378 23.993H10.1708C10.154 23.993 10.1374 23.9897 10.122 23.9833C10.1066 23.9769 10.0926 23.9676 10.0809 23.9559C9.92502 23.8027 9.77001 23.6545 9.61586 23.5113Z" fill="white"/>
<path d="M11.5772 22.8901C11.7833 22.8918 11.978 22.8926 12.1612 22.8926C12.1735 22.8926 12.1853 22.8975 12.1939 22.9062C12.2026 22.9149 12.2075 22.9267 12.2075 22.9389V23.0493C12.2075 23.055 12.2063 23.0607 12.2041 23.066C12.2018 23.0713 12.1986 23.0762 12.1944 23.0802C12.1903 23.0843 12.1854 23.0875 12.18 23.0897C12.1746 23.0919 12.1688 23.093 12.1629 23.093H11.7228C11.7114 23.093 11.7005 23.0975 11.6925 23.1054C11.6844 23.1133 11.6799 23.124 11.6799 23.1351L11.6782 23.9402C11.6783 23.9531 11.6739 23.9656 11.6658 23.9756C11.6577 23.9855 11.6463 23.9924 11.6337 23.9949C11.6228 23.9966 11.602 23.9975 11.5712 23.9975C11.5403 23.9975 11.5195 23.9963 11.5087 23.9941C11.4962 23.9914 11.485 23.9845 11.477 23.9745C11.4691 23.9645 11.4648 23.9521 11.465 23.9394L11.471 23.1343C11.4711 23.1288 11.4701 23.1233 11.468 23.1181C11.466 23.113 11.4629 23.1083 11.459 23.1043C11.4551 23.1003 11.4505 23.0971 11.4453 23.0949C11.4402 23.0927 11.4346 23.0915 11.429 23.0914L10.9888 23.0871C10.983 23.087 10.9772 23.0858 10.9718 23.0835C10.9665 23.0812 10.9616 23.0779 10.9576 23.0737C10.9535 23.0696 10.9503 23.0647 10.9482 23.0593C10.9461 23.054 10.945 23.0483 10.9451 23.0425L10.946 22.9322C10.9461 22.9261 10.9474 22.9201 10.9498 22.9145C10.9523 22.909 10.9558 22.9039 10.9601 22.8997C10.9645 22.8955 10.9697 22.8922 10.9753 22.8899C10.981 22.8877 10.987 22.8866 10.9931 22.8867C11.1758 22.8884 11.3705 22.8895 11.5772 22.8901Z" fill="white"/>
<path d="M13.4363 23.7689C13.5745 23.7689 13.6581 23.7675 13.6872 23.7647C13.7365 23.7605 13.7824 23.7384 13.8158 23.7027C13.8493 23.667 13.8679 23.6203 13.8679 23.5719L13.8722 22.9176C13.8722 22.9104 13.875 22.9036 13.88 22.8985C13.885 22.8935 13.8917 22.8906 13.8987 22.8906H14.0692C14.0731 22.8906 14.077 22.8914 14.0806 22.8929C14.0843 22.8945 14.0876 22.8967 14.0904 22.8995C14.0932 22.9023 14.0954 22.9057 14.0969 22.9093C14.0984 22.913 14.0991 22.917 14.0991 22.9209V23.5921C14.0991 23.6066 14.0968 23.6211 14.0923 23.635C14.0398 23.8001 13.9327 23.9141 13.7711 23.9769C13.749 23.9852 13.726 23.9903 13.7026 23.9921C13.6724 23.9949 13.5836 23.9963 13.4363 23.9963C13.289 23.9963 13.2002 23.9949 13.17 23.9921C13.1466 23.9903 13.1235 23.9852 13.1014 23.9769C12.9399 23.9141 12.8328 23.8001 12.7803 23.635C12.7758 23.6211 12.7734 23.6066 12.7734 23.5921V22.9209C12.7734 22.917 12.7742 22.913 12.7757 22.9093C12.7772 22.9057 12.7794 22.9023 12.7822 22.8995C12.785 22.8967 12.7883 22.8945 12.7919 22.8929C12.7956 22.8914 12.7995 22.8906 12.8034 22.8906H12.9738C12.9809 22.8906 12.9876 22.8935 12.9926 22.8985C12.9976 22.9036 13.0004 22.9104 13.0004 22.9176L13.0047 23.5719C13.0049 23.6202 13.0236 23.6666 13.057 23.7022C13.0905 23.7377 13.1362 23.7597 13.1854 23.7639C13.2145 23.7673 13.2981 23.7689 13.4363 23.7689Z" fill="white"/>
<path d="M14.8904 23.9823C14.8904 23.9863 14.8888 23.9901 14.8859 23.993C14.883 23.9958 14.8791 23.9974 14.875 23.9974H14.6678C14.6637 23.9974 14.6597 23.9958 14.6569 23.993C14.654 23.9901 14.6523 23.9863 14.6523 23.9823V22.9338C14.6523 22.9229 14.6567 22.9124 14.6644 22.9047C14.6721 22.8969 14.6825 22.8926 14.6935 22.8926H15.5447C15.5677 22.8926 15.5899 22.8987 15.6089 22.9103C15.7899 23.0181 15.865 23.1632 15.8342 23.3456C15.8303 23.3682 15.8202 23.3892 15.8051 23.4063L15.6603 23.5688C15.6547 23.5753 15.6511 23.5833 15.6499 23.5918C15.6486 23.6003 15.6499 23.609 15.6535 23.6168L15.823 23.9865C15.8235 23.9876 15.8236 23.9888 15.8236 23.99C15.8235 23.9912 15.8231 23.9924 15.8225 23.9934C15.8219 23.9943 15.8211 23.9952 15.8202 23.9957C15.8192 23.9963 15.8182 23.9966 15.817 23.9966H15.6261C15.618 23.9966 15.6101 23.9943 15.6032 23.9902C15.5962 23.986 15.5905 23.9801 15.5867 23.973L15.4068 23.6547C15.4004 23.6432 15.3908 23.6336 15.3792 23.6269C15.3676 23.6202 15.3544 23.6168 15.3409 23.6168H14.9332C14.9219 23.6168 14.911 23.6212 14.903 23.6291C14.8949 23.637 14.8904 23.6477 14.8904 23.6589V23.9823ZM14.8904 23.1174L14.8887 23.3818C14.8887 23.3883 14.8913 23.3945 14.896 23.3991C14.9006 23.4037 14.907 23.4063 14.9135 23.4063L15.4342 23.4105C15.4566 23.4106 15.4788 23.4069 15.4996 23.3995C15.5203 23.3921 15.5392 23.3812 15.5551 23.3675C15.571 23.3537 15.5836 23.3373 15.5923 23.3193C15.6009 23.3012 15.6054 23.2819 15.6055 23.2623V23.2471C15.6057 23.2076 15.5879 23.1696 15.5561 23.1415C15.5244 23.1134 15.4811 23.0975 15.436 23.0972L14.9153 23.093C14.9087 23.093 14.9024 23.0956 14.8977 23.1002C14.893 23.1047 14.8904 23.1109 14.8904 23.1174Z" fill="white"/>
<path d="M17.5236 22.8906H16.4514C16.4329 22.8906 16.418 22.9053 16.418 22.9235V23.0616C16.418 23.0797 16.4329 23.0944 16.4514 23.0944H17.5236C17.542 23.0944 17.557 23.0797 17.557 23.0616V22.9235C17.557 22.9053 17.542 22.8906 17.5236 22.8906Z" fill="white"/>
<path d="M18.7976 23.5483C18.5287 23.55 18.3557 23.5854 18.1998 23.4203C18.0439 23.2544 18.1347 22.9926 18.3394 22.9024C18.3665 22.8908 18.396 22.8848 18.4259 22.8848H19.3928C19.3982 22.8848 19.4035 22.8868 19.4073 22.8904C19.4112 22.8941 19.4133 22.899 19.4133 22.9041V23.0827C19.4133 23.0854 19.4128 23.0881 19.4116 23.0906C19.4105 23.0931 19.4088 23.0954 19.4068 23.0973C19.4047 23.0991 19.4022 23.1006 19.3995 23.1016C19.3968 23.1025 19.3939 23.103 19.3911 23.1029C19.2774 23.1001 18.9686 23.0995 18.4644 23.1012C18.4442 23.1012 18.4243 23.1061 18.4064 23.1153C18.3885 23.1245 18.3733 23.1378 18.362 23.154C18.3507 23.1702 18.3437 23.1888 18.3417 23.2081C18.3397 23.2273 18.3428 23.2468 18.3505 23.2646C18.3602 23.287 18.3885 23.3041 18.4353 23.3159C18.4639 23.3232 18.5778 23.3263 18.777 23.3252C19.0459 23.3235 19.2198 23.2881 19.3748 23.4532C19.5306 23.6191 19.4399 23.881 19.2352 23.9711C19.2081 23.9828 19.1786 23.9888 19.1487 23.9888H18.1818C18.1791 23.9888 18.1764 23.9883 18.174 23.9873C18.1715 23.9863 18.1692 23.9849 18.1673 23.9831C18.1654 23.9813 18.1639 23.9792 18.1628 23.9768C18.1618 23.9745 18.1613 23.9719 18.1613 23.9694V23.7909C18.1613 23.7881 18.1618 23.7854 18.163 23.7829C18.1641 23.7804 18.1657 23.7782 18.1678 23.7763C18.1699 23.7744 18.1724 23.7729 18.1751 23.7719C18.1778 23.771 18.1806 23.7705 18.1835 23.7707C18.2971 23.7735 18.606 23.774 19.1102 23.7723C19.1304 23.7723 19.1503 23.7674 19.1682 23.7582C19.1861 23.749 19.2013 23.7357 19.2126 23.7195C19.2239 23.7033 19.2308 23.6848 19.2328 23.6655C19.2348 23.6462 19.2318 23.6268 19.2241 23.609C19.2144 23.5865 19.1861 23.5694 19.1393 23.5576C19.1107 23.5503 18.9968 23.5472 18.7976 23.5483Z" fill="white"/>
<path d="M8.41818 23.3301H7.30828C7.29551 23.3301 7.28516 23.3403 7.28516 23.3528V23.5347C7.28516 23.5473 7.29551 23.5574 7.30828 23.5574H8.41818C8.43095 23.5574 8.4413 23.5473 8.4413 23.5347V23.3528C8.4413 23.3403 8.43095 23.3301 8.41818 23.3301Z" fill="white"/>
<path d="M17.5296 23.3281H16.4419C16.4287 23.3281 16.418 23.3387 16.418 23.3517V23.5269C16.418 23.5399 16.4287 23.5504 16.4419 23.5504H17.5296C17.5428 23.5504 17.5536 23.5399 17.5536 23.5269V23.3517C17.5536 23.3387 17.5428 23.3281 17.5296 23.3281Z" fill="white"/>
<path d="M17.5361 23.7637L16.445 23.7656C16.4322 23.7656 16.4219 23.7758 16.4219 23.7884L16.4222 23.9736C16.4223 23.9862 16.4326 23.9963 16.4454 23.9963L17.5365 23.9944C17.5492 23.9944 17.5596 23.9842 17.5595 23.9717L17.5592 23.7864C17.5592 23.7739 17.5488 23.7637 17.5361 23.7637Z" fill="white"/>
<path d="M8.41732 23.7656H7.30742C7.29513 23.7656 7.28516 23.7754 7.28516 23.7875V23.9745C7.28516 23.9866 7.29513 23.9964 7.30742 23.9964H8.41732C8.42962 23.9964 8.43959 23.9866 8.43959 23.9745V23.7875C8.43959 23.7754 8.42962 23.7656 8.41732 23.7656Z" fill="white"/>
</g>
<defs>
<clipPath id="clip0_1261_2128">
<rect width="24.75" height="24" fill="white"/>
</clipPath>
</defs>
</svg>
